<svg id="Layer_2" xmlns="http://www.w3.org/2000/svg" viewBox="0 0 14.1 14.1"><style>.st0{fill:#457964}.st1{fill:#fff}</style><path class="st0" d="M0 0h14.1v14.1H0z"/><path class="st1" d="M9.2 1.7c-.1 0-.2-.1-.3 0-.5.4-1 1.7-1 4.2 0 .9.3 1.8.3 2 .1.2.2.3.3.5l-.2 3.4c0 .3.2.6.5.6s.5-.3.5-.6V2c0-.1 0-.2-.1-.3M6.7 1.8c-.2-.1-.3 0-.3.2v2.3c0 .1-.1.2-.3.2-.1 0-.3-.1-.3-.2V2c0-.1-.1-.2-.3-.2-.2 0-.3.1-.3.2v2.3c0 .1-.1.2-.3.2-.1 0-.3-.1-.3-.2V2c0-.1-.1-.2-.3-.2-.2 0-.3.1-.3.2v2.5c0 .8.4 1 .9 1l-.1 6.4c0 .3.2.6.5.6s.5-.2.5-.6L6 5.4c.5 0 .9-.2.9-1L7 2c0-.2-.2-.2-.3-.2"/></svg>